<svg xmlns="http://www.w3.org/2000/svg" viewBox="0 0 39.39 35.64"><defs><style>.cls-1{fill:#28292e;}</style></defs><title>cart-icon</title><g id="Слой_2" data-name="Слой 2"><g id="Слой_1-2" data-name="Слой 1"><path class="cls-1" d="M.94,0a.94.94,0,1,0,0,1.88H5.8L10.74,25.2c.12.58.5,1.06,1,1.06H35.17a.94.94,0,1,0,0-1.88H12.48L7.49.73A1,1,0,0,0,6.56,0Zm9.38,5.63,1.22,6.1h7.69V5.63Zm10.78,0v6.1h7.5V5.63Zm9.38,0v6.1H38l1.42-6.1Zm-18.57,8,1.22,6.1h6.1V13.6Zm9.19,0v6.1h7.5V13.6Zm9.38,0v6.1H36.1l1.42-6.1ZM16.41,29.07a3.28,3.28,0,1,0,3.28,3.28A3.28,3.28,0,0,0,16.41,29.07Zm14.07,0a3.28,3.28,0,1,0,3.28,3.28A3.28,3.28,0,0,0,30.48,29.07Z"/></g></g></svg>