<svg xmlns="http://www.w3.org/2000/svg" viewBox="0 0 22.81 20.64"><defs><style>.cls-1{fill:#fcfcfc;}</style></defs><title>cart-icon-white</title><g id="Слой_2" data-name="Слой 2"><g id="Слой_1-2" data-name="Слой 1"><path class="cls-1" d="M.54,0a.54.54,0,1,0,0,1.09H3.36L6.22,14.59c.07.33.29.61.57.61H20.36a.54.54,0,1,0,0-1.09H7.23L4.34.42A.56.56,0,0,0,3.8,0ZM6,3.26l.7,3.53h4.45V3.26Zm6.25,0V6.79h4.34V3.26Zm5.43,0V6.79H22l.82-3.53ZM6.9,7.87l.7,3.53h3.53V7.87Zm5.32,0V11.4h4.34V7.87Zm5.43,0V11.4h3.26l.82-3.53Zm-8.15,9a1.9,1.9,0,1,0,1.9,1.9A1.9,1.9,0,0,0,9.5,16.83Zm8.15,0a1.9,1.9,0,1,0,1.9,1.9A1.9,1.9,0,0,0,17.65,16.83Z"/></g></g></svg>