<svg xmlns="http://www.w3.org/2000/svg" viewBox="0 0 82.8 81.54"><defs><style>.cls-1{fill:#fff;}.cls-2{fill:#242424;}</style></defs><title>cat6</title><g id="Слой_2" data-name="Слой 2"><g id="Слой_1-2" data-name="Слой 1"><polygon class="cls-1" points="41.4 0 14.38 9.84 0 34.74 4.99 63.06 27.02 81.54 55.78 81.54 77.8 63.06 82.8 34.74 68.42 9.84 41.4 0"/><path class="cls-2" d="M37.95,18.55A9.43,9.43,0,0,1,40.09,14H25.89A9.43,9.43,0,0,1,28,18.55Z"/><path class="cls-2" d="M41.89,27.43c-.73-3.4-3.78-4.1-4-7.62H28.08c-.21,3.53-3.26,4.22-4,7.62C23,32.6,28.8,36.79,29.23,40.65h7.53C37.18,36.79,43,32.6,41.89,27.43Z"/><polygon class="cls-2" points="18.13 41.95 18.13 67.57 22.09 67.57 22.09 45.54 60.71 45.54 60.71 67.57 64.67 67.57 64.67 41.95 18.13 41.95"/></g></g></svg>