<svg xmlns="http://www.w3.org/2000/svg" viewBox="0 0 280.03 273.88"><defs><style>.cls-1{fill:#28292e;}</style></defs><title>delivery</title><g id="Слой_2" data-name="Слой 2"><g id="Слой_1-2" data-name="Слой 1"><path class="cls-1" d="M64.06,148.62a8.3,8.3,0,1,0,8.3,8.3A8.3,8.3,0,0,0,64.06,148.62Zm0,11.9a3.61,3.61,0,1,1,3.61-3.6A3.61,3.61,0,0,1,64.06,160.53Z"/><path class="cls-1" d="M86.67,148.62a8.3,8.3,0,1,0,8.3,8.3A8.3,8.3,0,0,0,86.67,148.62Zm0,11.9a3.61,3.61,0,1,1,3.61-3.6A3.61,3.61,0,0,1,86.67,160.53Z"/><path class="cls-1" d="M109.29,148.62a8.3,8.3,0,1,0,8.3,8.3A8.3,8.3,0,0,0,109.29,148.62Zm0,11.9a3.61,3.61,0,1,1,3.61-3.6A3.61,3.61,0,0,1,109.29,160.53Z"/><path class="cls-1" d="M171,148.62a8.3,8.3,0,1,0,8.3,8.3A8.3,8.3,0,0,0,171,148.62Zm0,11.9a3.61,3.61,0,1,1,3.61-3.6A3.61,3.61,0,0,1,171,160.53Z"/><path class="cls-1" d="M232.64,148.62a8.3,8.3,0,1,0,8.3,8.3A8.3,8.3,0,0,0,232.64,148.62Zm0,11.9a3.61,3.61,0,1,1,3.61-3.6A3.61,3.61,0,0,1,232.64,160.53Z"/><path class="cls-1" d="M250.76,117.4H236.25l-16.42-3.3-.64,1.43.64,1.87v30.23l2.85,0a15.45,15.45,0,0,1,5.42-10.86.78.78,0,0,1,1.12.16.84.84,0,0,1-.16,1.15,14.06,14.06,0,0,0-4.77,9.52c12.81-.19,18.36-.42,18.36,14.44H254v-4c-1,.45-1.41.82-1.86.82a.74.74,0,0,1-.76-.82c-1.27.45-1.64.82-2.1.82s-.82-.37-.53-.82V153c-.3-.45.07-.82.53-.82s.82.37,2.1.82a.74.74,0,0,1,.76-.82c.45,0,.82.37,1.86.82V124.13Zm-27.09,1.2a.82.82,0,1,1,.26-1.63l10.78,1.76a.83.83,0,0,1-.13,1.64h-.14Zm27.66,19.8h-10.5v-.49l-10.5-3.3V127.9h21Z"/><path class="cls-1" d="M225.68,148.91h-21.6v2.63h-5.23a8.29,8.29,0,1,0,.19.22l5,3.86V162h18.38v-5.25A10.45,10.45,0,0,1,225.68,148.91Zm-33.13,11.62a3.61,3.61,0,1,1,3.61-3.6A3.61,3.61,0,0,1,192.55,160.53Z"/><polygon class="cls-1" points="159.45 148.91 159.45 155.46 164.35 148.91 159.45 148.91"/><polygon class="cls-1" points="181.41 148.91 181.41 148.91 176.52 148.91 181.41 155.46 181.41 155.46 186.31 148.91 181.41 148.91"/><polygon class="cls-1" points="51.81 148.91 51.81 155.46 56.7 148.91 51.81 148.91"/><polygon class="cls-1" points="120.07 155.46 120.07 148.91 115.17 148.91 120.07 155.46"/><polygon class="cls-1" points="75.03 148.91 70.13 148.91 75.03 155.46 79.92 148.91 75.03 148.91"/><polygon class="cls-1" points="97.93 148.91 93.04 148.91 97.93 155.46 102.83 148.91 97.93 148.91"/><rect class="cls-1" x="151.57" y="151.53" width="2.63" height="2.62"/><path class="cls-1" d="M151.57,151.53v-4.37h66.08V108.78H36.12v38.38H46.56v12.25h2.63V147.16h78.76v4.37h-2.63v2.62h0v5.25H154.2v-5.25h-21v-7h15.75v4.37ZM42.3,140.63V114H212.52v26.64Z"/><path class="cls-1" d="M126,273.88,90.69,265l-27.76,7.25-24.84-6.27L10.67,273.1l-1.5.72-7.64-29.1L7.83,220,.56,192.28l8.94-35.16L3.8,135.44l2.64-21.79L3.63,94.75,8.65,75,2.1,50,7.18,30,0,10.11l29.1-7.6L53.94,8.79,81.7,1.54,117,10.45l21.75-5.68,21.85,2.63,19-2.8,19.81,5,25-6.54,20.07,5.07,18.68-6.64L270.62,0l7.12,19.87L272.63,40l6.56,25-5,19.87,2.79,18.77-2.63,21.68L280,147.06l-8.94,35.16,7.27,27.68-6.29,24.76,7.46,28.41-7,1.75-19,6.78-20.16-5.09-25,6.54-19.92-5-18.83,2.78-21.74-2.62Zm-35.28-11,35.27,8.91,21.75-5.68,21.85,2.63,19-2.8,19.81,5,25-6.54,20.07,5.07,18.54-6.6,5.12-1.29L270,234.67l6.29-24.76L269,182.23,278,147.07l-5.7-21.68,2.64-21.79L272.1,84.7l5-19.75-6.56-25,5.09-20L269.32,2.3l-5.74,1.15-19,6.78L224.37,5.14l-25,6.54-19.92-5L160.59,9.42,138.85,6.8,117,12.52,81.7,3.61,53.94,10.85,29.11,4.58,2.67,11.48l6.6,18.44L4.16,50l6.56,25-5,19.87,2.79,18.77L5.83,135.3l5.73,21.81L2.62,192.27l7.27,27.68L3.6,244.71l6.92,26.36,27.56-7.2,24.84,6.27Z"/><rect class="cls-1" x="38.3" y="111.31" width="176.83" height="32.33"/></g></g></svg>