<svg xmlns="http://www.w3.org/2000/svg" viewBox="0 0 280.03 273.88"><defs><style>.cls-1{fill:#28292e;}</style></defs><title>garanty</title><g id="Слой_2" data-name="Слой 2"><g id="Слой_1-2" data-name="Слой 1"><path class="cls-1" d="M126,273.88,90.69,265l-27.76,7.25-24.84-6.27L10.67,273.1l-1.5.72-7.64-29.1.06-.25L7.83,220,.56,192.28.62,192,9.5,157.12,3.8,135.44l0-.19,2.62-21.6L3.63,94.75,8.65,75,2.1,50l.06-.25L7.19,30,0,10.11l29.1-7.6L53.94,8.79,81.7,1.54,117,10.45l21.75-5.68,21.85,2.63,19-2.8,19.81,5,25-6.54,20.07,5.07,18.68-6.64L270.62,0l7.12,19.87L272.63,40l6.56,25-.06.25-5,19.62,2.79,18.77,0,.13-2.61,21.54L280,147.06l-.06.25-8.87,34.91,7.27,27.68-.06.25-6.23,24.51,7.46,28.41-7,1.75-19,6.78-20.16-5.09-25,6.54-19.92-5-18.83,2.78-21.74-2.62Zm-35.28-11,35.27,8.91,21.75-5.68,21.85,2.63,19-2.8,19.81,5,25-6.54,20.07,5.07,18.54-6.6,5.12-1.29L270,234.67l.06-.25,6.23-24.51L269,182.23l.06-.25L278,147.07l-5.69-21.68,0-.19,2.62-21.6L272.1,84.7l5-19.75-6.56-25,.06-.25,5-19.76L269.32,2.3l-5.74,1.15-19,6.78L224.38,5.14l-25,6.54-19.92-5L160.59,9.42,138.85,6.8,117,12.52,81.71,3.61,53.95,10.85,29.11,4.58,2.67,11.48l6.6,18.44L4.17,50l6.56,25-.06.25-5,19.62,2.79,18.77,0,.13L5.83,135.3l5.73,21.81-.06.25L2.63,192.27l7.27,27.68-.06.25L3.6,244.71l6.92,26.36,27.56-7.2,24.84,6.27Z"/><path class="cls-1" d="M132.08,201.1l-1.69-3a3.25,3.25,0,0,1-.56-.75l-12.6,26.32,10.72-2.44,5.64,8.46L145.05,206h-4.51A9.64,9.64,0,0,1,132.08,201.1Z"/><path class="cls-1" d="M152.57,203.36a3.79,3.79,0,0,0,2.07.56,4.29,4.29,0,0,0,2.07-.56l5.64-3h7a4,4,0,0,0,3.52-2l3.15-5.57,5.38-3.15a4,4,0,0,0,2-3.52v-6.31l3.34-5.75a3.68,3.68,0,0,0,0-3.9l-3.34-5.75v-6.12a4,4,0,0,0-2-3.52L176,151.56,172.83,146a4,4,0,0,0-3.52-2h-6.49l-5.57-3.15a3.68,3.68,0,0,0-3.9,0L147.78,144h-6.31a4,4,0,0,0-3.52,2l-3.15,5.57L129,154.9a4,4,0,0,0-2,3.52v5.83l-4.14,5.45a3.79,3.79,0,0,0-.56,2.07,4.29,4.29,0,0,0,.56,2.07L127,179.3v6.39c-.94,1.5-.19,2.82,1.13,3.57l5.83,3.38,3.2,5.64c.75,1.32,2.07,2.07,3.57.19h6.39ZM146,182.87l1.32-7.71-5.64-5.45c-.38-.19-.38-.75-.19-1.13a1.32,1.32,0,0,1,.94-.75l7.9-1.13,3.57-7.14a1.07,1.07,0,0,1,1.88,0l3.57,7.14,7.9,1.13a1.16,1.16,0,0,1,.75,1.88l-5.64,5.45,1.32,7.71a1.44,1.44,0,0,1-.38.94.94.94,0,0,1-1.13,0l-7-3.76-7,3.76a1.2,1.2,0,0,1-1.13,0C146.18,183.62,146,183.24,146,182.87Z"/><path class="cls-1" d="M180,221l10.72,2.44-12-25.19-1.5,2.63a9.64,9.64,0,0,1-8.46,4.89l-5.64.38,11.47,23.31Z"/><path class="cls-1" d="M202.94,44.32H77.58a3.18,3.18,0,0,0-3.21,3.19v148s1.5,1.69,2.07,2.26a2.42,2.42,0,0,0,2.26.75h39.85a3.29,3.29,0,0,0,3.2-3.2c0-1.69-3.2-4.32-3.2-4.32h.12l-36.78.19V50H200.32V192.83H188.67c-1.69-.56-3.2.75-3.2,2.63s3.2,3,3.2,3h14.08a3.18,3.18,0,0,0,3.21-3.19v-148A2.87,2.87,0,0,0,202.94,44.32Z"/><path class="cls-1" d="M138.44,87.17v7.18h-22V88.66l9.93-9.19a8.2,8.2,0,0,0,1.73-2.08,3.77,3.77,0,0,0,.43-1.69,2,2,0,0,0-.69-1.59,3,3,0,0,0-2-.57,4.45,4.45,0,0,0-2.35.67,4.38,4.38,0,0,0-1.69,1.88l-7-3.49A11.47,11.47,0,0,1,119.4,68a16.36,16.36,0,0,1,13.07-.65,9,9,0,0,1,3.93,3,7.53,7.53,0,0,1,1.41,4.51,9.62,9.62,0,0,1-1,4.26,16,16,0,0,1-3.75,4.49l-3.93,3.57Z"/><path class="cls-1" d="M161,79a8.06,8.06,0,0,1,2.73,6.34,8.86,8.86,0,0,1-1.35,4.77,9.66,9.66,0,0,1-4.18,3.53,16.21,16.21,0,0,1-7,1.35,27.15,27.15,0,0,1-5.79-.63,18,18,0,0,1-5-1.85l3.14-6.83a15.36,15.36,0,0,0,3.63,1.49,14.3,14.3,0,0,0,3.71.51,5.25,5.25,0,0,0,2.61-.57,1.76,1.76,0,0,0,1-1.59,1.58,1.58,0,0,0-.9-1.47,7.51,7.51,0,0,0-3.26-.49h-8l1.37-16.68H162v7H151.32l-.2,2.71h1.41Q158.31,76.57,161,79Z"/><path class="cls-1" d="M125.53,105.21v27.48h-9.11V112.4h-6.28l-.08,3.18a56.1,56.1,0,0,1-.94,9.66,12,12,0,0,1-2.75,5.87,7.31,7.31,0,0,1-5.61,2.1,16.52,16.52,0,0,1-3.93-.51l.47-7.42a4.52,4.52,0,0,0,1,.12,2.49,2.49,0,0,0,2.22-1.18,7.72,7.72,0,0,0,1-3.14q.27-2,.39-5.14l.35-10.72Z"/><path class="cls-1" d="M154.23,125.7v7H131.38V105.21h22.34v7H140.49v3.22h11.62v6.67H140.49v3.61Z"/><path class="cls-1" d="M182.37,112.4h-8v20.3h-9.11V112.4h-8v-7.18h25.2Z"/></g></g></svg>