<svg xmlns="http://www.w3.org/2000/svg" viewBox="0 0 201.72 198.06"><defs><style>.cls-1{font-size:25.03px;font-family:Ubuntu-Bold, Ubuntu;font-weight:700;}.cls-1,.cls-4{fill:#28292e;}.cls-2{letter-spacing:-0.07em;}.cls-3{letter-spacing:0em;}</style></defs><title>help-save</title><g id="Слой_2" data-name="Слой 2"><g id="Слой_1-2" data-name="Слой 1"><text class="cls-1" transform="translate(31.96 166.72)">Х<tspan class="cls-2" x="16.9" y="0">Р</tspan><tspan class="cls-3" x="31.31" y="0">АНЕНИЕ</tspan></text><path class="cls-4" d="M7.18,198.06,1.39,175.94l4.48-17.69L.69,138.47l6.37-25.13L3,97.91,4.9,82.29l-2-13.56L6.46,54.66,1.79,36.83,5.4,22.57.69,9.4,0,7.67,22,1.91,39.68,6.39,59.46,1.21,84.58,7.58l15.43-4,15.62,1.89,13.57-2L143.27,7,161.1,2.31l14.26,3.61,13.17-4.68L194.67,0l5.44,15.23-3.65,14.41,4.67,17.83-3.61,14.25,2,13.35-1.87,15.44,4.1,15.65-6.37,25.13,5.18,19.78-4.48,17.69,5.49,21-5.81,1.46-13.81,4.93-14.41-3.65-17.83,4.67-14.25-3.61-13.35,2-15.44-1.87L91,197.73l-25.13-6.37-19.78,5.18L28.4,192.06,9,197.19ZM65.86,188,91,194.33l15.43-4L122,192.18l13.56-2,14.06,3.56,17.83-4.67,14.26,3.61,13.1-4.67,2.66-.67-4.87-18.58,4.48-17.69L192,131.29l6.37-25.13-4-15.43,1.89-15.62-2-13.56,3.56-14.06-4.67-17.83,3.61-14.26-4.14-11.6-3.23.65L175.52,9.36,161.11,5.71l-17.83,4.67L129,6.77l-13.35,2L100.24,6.88,84.6,11,59.47,4.61,39.7,9.79,22,5.31,4.38,9.92,8.84,22.41,5.19,36.81,9.86,54.65,6.25,68.9l2,13.35L6.36,97.69l4.1,15.65L4.09,138.46l5.18,19.78L4.79,175.93l4.64,17.7,19-5,17.69,4.48Z"/><path class="cls-4" d="M149.09,33.21a1.2,1.2,0,0,0-1.2,1.2V68H103.5V34.41a1.2,1.2,0,1,0-2.4,0V68H95.7V38.73c0-.12-.12-.24-.24-.36s-.24-.24-.36-.24h-31c-.12.12-.24.12-.36.24s-.24.24-.24.36V68H56.7V34.41a1.2,1.2,0,1,0-2.4,0V128a1.2,1.2,0,1,0,2.4,0v-7.2H101.1V128a1.2,1.2,0,1,0,2.4,0v-7.2h44.39V128a1.2,1.2,0,1,0,2.4,0V34.41A1.13,1.13,0,0,0,149.09,33.21Zm-67.91,21L93.3,42.09V66.32ZM91.62,68H67.38L79.5,55.89Zm0-27.6L79.5,52.53,67.38,40.41ZM65.7,42.09,77.82,54.21,65.7,66.32Zm-9,34.31H101.1v36H97.5V93.92c0-.12-.12-.24-.24-.36s-.24-.24-.36-.24H76.62c-.12.12-.24.12-.36.24s-.24.24-.24.36V99.8H64.62a1.2,1.2,0,0,0-1.2,1.2v11.4H56.7ZM85,104l-6.72,6.72V97.28Zm-5-8.4H93.42l-6.72,6.72Zm6.72,10.08,6.72,6.72H80ZM88.38,104l6.72-6.72v13.44ZM75.9,102.2v10.2H65.7V102.2Zm72,16.2H56.7v-3.6h91.18ZM127.73,99.2l11.52-11.52v23Zm9.72,13.2H114.53l11.52-11.52Zm-11.4-14.88L114.53,86h23Zm-1.8,1.68-11.52,11.52v-23Zm23.64,13.2h-6.36V84.32c0-.12-.12-.24-.24-.36s-.24-.24-.36-.24H111.66a1.09,1.09,0,0,0-.84.36c-.12.12-.24.24-.24.36v28H103.5v-36h44.39Zm0-38.39H56.7V70.4h91.18Z"/></g></g></svg>