<svg xmlns="http://www.w3.org/2000/svg" viewBox="0 0 201.72 198.06"><defs><style>.cls-1{font-size:26.34px;font-family:Ubuntu-Bold, Ubuntu;font-weight:700;}.cls-1,.cls-6{fill:#28292e;}.cls-2{letter-spacing:-0.02em;}.cls-3{letter-spacing:0.02em;}.cls-4{letter-spacing:-0.08em;}.cls-5{letter-spacing:0.02em;}</style></defs><title>help-set</title><g id="Слой_2" data-name="Слой 2"><g id="Слой_1-2" data-name="Слой 1"><text class="cls-1" transform="translate(27.2 176.62)"><tspan class="cls-2">У</tspan><tspan class="cls-3" x="16.62" y="0">С</tspan><tspan class="cls-4" x="34.24" y="0">Т</tspan><tspan x="48.26" y="0">АНОВ</tspan><tspan class="cls-5" x="125.09" y="0">К</tspan><tspan x="143.77" y="0">А</tspan></text><path class="cls-6" d="M7.18,198.06,1.39,175.94l4.48-17.69L.69,138.47l6.37-25.13L3,97.91,4.9,82.29l-2-13.56L6.46,54.66,1.79,36.83,5.4,22.57.69,9.4,0,7.67,22,1.91,39.68,6.39,59.46,1.21,84.58,7.58l15.43-4,15.62,1.89,13.57-2L143.27,7,161.1,2.31l14.26,3.61,13.17-4.68L194.67,0l5.44,15.23-3.65,14.41,4.67,17.83-3.61,14.25,2,13.35-1.87,15.44,4.1,15.65-6.37,25.13,5.18,19.78-4.48,17.69,5.49,21-5.81,1.46-13.81,4.93-14.41-3.65-17.83,4.67-14.25-3.61-13.35,2-15.44-1.87L91,197.73l-25.13-6.37-19.78,5.18L28.4,192.06,9,197.19ZM65.86,188,91,194.33l15.43-4L122,192.18l13.57-2,14.06,3.56,17.83-4.67,14.26,3.61,13.1-4.67,2.66-.67-4.87-18.58,4.48-17.69L192,131.29l6.37-25.13-4-15.43,1.89-15.62-2-13.57,3.56-14.06-4.67-17.83,3.61-14.26-4.14-11.6-3.23.65L175.52,9.36,161.11,5.71l-17.83,4.67L129,6.77l-13.35,2L100.24,6.88,84.6,11,59.47,4.61,39.7,9.79,22,5.31,4.38,9.92,8.84,22.41,5.19,36.81,9.86,54.65,6.25,68.9l2,13.35L6.36,97.69l4.1,15.65L4.09,138.46l5.18,19.78L4.79,175.93l4.64,17.7,19-5,17.69,4.48Z"/><path class="cls-6" d="M35.76,93a.8.8,0,0,1-.54.11,1.33,1.33,0,0,1-1.36-1.27l-.31-24.37a1.32,1.32,0,1,1,2.63-.09l.31,24.37A1.43,1.43,0,0,1,35.76,93Z"/><path class="cls-6" d="M43.88,92.89a.8.8,0,0,1-.54.11A1.33,1.33,0,0,1,42,91.74l-.31-24.37a1.32,1.32,0,0,1,2.63-.09l.31,24.37A1.17,1.17,0,0,1,43.88,92.89Z"/><path class="cls-6" d="M43.7,68.46h0A10.92,10.92,0,0,1,39,69.55a10.19,10.19,0,0,1-4.65-1,10.82,10.82,0,0,1-6.48-9.92,11.22,11.22,0,0,1,5.65-9.74,1.56,1.56,0,0,1,1.85.44A1.45,1.45,0,0,1,35,51.18a8.45,8.45,0,0,0-4.55,7.42,8.68,8.68,0,0,0,4.89,7.57,8.28,8.28,0,0,0,3.64.75,7.79,7.79,0,0,0,3.47-.8,8.41,8.41,0,0,0,4.73-7.66A8.7,8.7,0,0,0,43,51.25a1.35,1.35,0,0,1,1.4-2.32,11.16,11.16,0,0,1,5.47,9.37A11,11,0,0,1,43.7,68.46Z"/><path class="cls-6" d="M39.69,62.39a1.17,1.17,0,0,1-1.43-.19l-5-4.41a1.46,1.46,0,0,1-.47-1L32.76,50a1.32,1.32,0,1,1,2.63-.09l.06,6.21,3.61,3.14,3.49-3.19-.06-5.91a1.32,1.32,0,0,1,2.63-.09l.06,6.51a1,1,0,0,1-.43,1L39.94,62C39.93,62.27,39.81,62.33,39.69,62.39Z"/><path class="cls-6" d="M45.15,110.1a1.42,1.42,0,0,1-1.73-.49,1.33,1.33,0,0,1,.44-1.85,8.17,8.17,0,0,0,3.89-7.25,8.68,8.68,0,0,0-4.89-7.57,9.14,9.14,0,0,0-3.52-.81,8,8,0,0,0-3.59.86l-.12.06a8.56,8.56,0,0,0-4.73,7.66A8.24,8.24,0,0,0,35.38,108a1.34,1.34,0,0,1-1.22,2.38,11,11,0,0,1,.37-19.65l.12-.06A10.91,10.91,0,0,1,44,90.62a11.14,11.14,0,0,1,1.37,19.54Z"/><path class="cls-6" d="M45.15,110.1a.8.8,0,0,1-.54.11A1.33,1.33,0,0,1,43.25,109L43.19,103,39.58,99.9l-3.49,3.19.06,6.21a1.32,1.32,0,0,1-2.63.09l-.05-6.81a1,1,0,0,1,.43-1l4.82-4.43a1.36,1.36,0,0,1,1.79,0l5,4.41a1.46,1.46,0,0,1,.47,1l-.06,6.27A1.28,1.28,0,0,1,45.15,110.1Z"/><path class="cls-6" d="M86.49,134.11H23.9a1.25,1.25,0,1,1,0-2.5h62.6a1.25,1.25,0,1,1,0,2.5Z"/><path class="cls-6" d="M43.93,131.61a1.25,1.25,0,0,1-1.25-1.25v-2.5a1.25,1.25,0,1,1,2.5,0v2.5A1.25,1.25,0,0,1,43.93,131.61Z"/><path class="cls-6" d="M86.49,129.1H43.93a1.25,1.25,0,1,1,0-2.5H86.49a1.25,1.25,0,1,1,0,2.5Z"/><path class="cls-6" d="M161.61,131.61a1.25,1.25,0,0,1-1.25-1.25v-2.5a1.25,1.25,0,1,1,2.5,0v2.5A1.25,1.25,0,0,1,161.61,131.61Z"/><path class="cls-6" d="M61.45,126.6a1.25,1.25,0,0,1-1.25-1.25v-10a1.25,1.25,0,1,1,2.5,0v10A1.25,1.25,0,0,1,61.45,126.6Z"/><path class="cls-6" d="M144.08,126.6a1.25,1.25,0,0,1-1.25-1.25v-10a1.25,1.25,0,1,1,2.5,0v10A1.25,1.25,0,0,1,144.08,126.6Z"/><path class="cls-6" d="M91.5,116.58h-30a1.25,1.25,0,1,1,0-2.5h30a1.25,1.25,0,1,1,0,2.5Z"/><path class="cls-6" d="M66.46,114.08a1.25,1.25,0,0,1-1.25-1.25V45.22a1.25,1.25,0,1,1,2.5,0v67.6A1.25,1.25,0,0,1,66.46,114.08Z"/><path class="cls-6" d="M139.07,114.08a1.25,1.25,0,0,1-1.25-1.25V45.22a1.25,1.25,0,1,1,2.5,0v67.6A1.25,1.25,0,0,1,139.07,114.08Z"/><path class="cls-6" d="M129.17,50.23A1.25,1.25,0,0,1,127.92,49a25,25,0,0,0-50.08,0,1.25,1.25,0,1,1-2.5,0,27.54,27.54,0,0,1,55.08,0A1.25,1.25,0,0,1,129.17,50.23Z"/><path class="cls-6" d="M76.48,51.48H69A1.25,1.25,0,0,1,69,49h7.51a1.25,1.25,0,0,1,0,2.5Z"/><path class="cls-6" d="M136.57,51.48h-7.4a1.25,1.25,0,0,1,0-2.5h7.4a1.25,1.25,0,0,1,0,2.5Z"/><path class="cls-6" d="M129.17,51.48a1.25,1.25,0,0,1-1.25-1.25V49a1.25,1.25,0,1,1,2.5,0v1.25A1.25,1.25,0,0,1,129.17,51.48Z"/><path class="cls-6" d="M76.59,51.48a1.25,1.25,0,0,1-1.25-1.25V49a1.25,1.25,0,0,1,2.5,0v1.25A1.25,1.25,0,0,1,76.59,51.48Z"/><path class="cls-6" d="M66.46,46.48a3.76,3.76,0,1,1,3.76-3.76A3.76,3.76,0,0,1,66.46,46.48Zm0-5a1.25,1.25,0,1,0,1.25,1.25A1.25,1.25,0,0,0,66.46,41.47Z"/><path class="cls-6" d="M139.07,46.48a3.76,3.76,0,1,1,3.76-3.76A3.76,3.76,0,0,1,139.07,46.48Zm0-5a1.25,1.25,0,1,0,1.25,1.25A1.25,1.25,0,0,0,139.07,41.47Z"/><path class="cls-6" d="M124,50.23A1.25,1.25,0,0,1,122.8,49a20,20,0,0,0-40.06,0,1.25,1.25,0,1,1-2.5,0,22.53,22.53,0,1,1,45.07,0A1.25,1.25,0,0,1,124,50.23Z"/><path class="cls-6" d="M124,56.49a1.25,1.25,0,0,1-1.25-1.25V49a1.25,1.25,0,1,1,2.5,0v6.26A1.25,1.25,0,0,1,124,56.49Z"/><path class="cls-6" d="M136.57,56.49H124a1.25,1.25,0,0,1,0-2.5h12.52a1.25,1.25,0,0,1,0,2.5Z"/><path class="cls-6" d="M81.48,56.49a1.25,1.25,0,0,1-1.25-1.25V49a1.25,1.25,0,1,1,2.5,0v6.26A1.25,1.25,0,0,1,81.48,56.49Z"/><path class="cls-6" d="M81.48,56.49H69A1.25,1.25,0,0,1,69,54H81.48a1.25,1.25,0,0,1,0,2.5Z"/><path class="cls-6" d="M129.17,69H76.48a1.25,1.25,0,1,1,0-2.5h52.7a1.25,1.25,0,1,1,0,2.5Z"/><path class="cls-6" d="M76.48,99.06a1.25,1.25,0,0,1-1.25-1.25v-30a1.25,1.25,0,0,1,2.5,0v30A1.25,1.25,0,0,1,76.48,99.06Z"/><path class="cls-6" d="M129.06,99.06H76.48a1.25,1.25,0,1,1,0-2.5h52.58a1.25,1.25,0,1,1,0,2.5Z"/><path class="cls-6" d="M129.06,99.06a1.25,1.25,0,0,1-1.25-1.25v-30a1.25,1.25,0,0,1,2.5,0v30A1.25,1.25,0,0,1,129.06,99.06Z"/><path class="cls-6" d="M119,79H86.49a1.25,1.25,0,1,1,0-2.5H119a1.25,1.25,0,1,1,0,2.5Z"/><path class="cls-6" d="M119,84H86.49a1.25,1.25,0,1,1,0-2.5H119a1.25,1.25,0,1,1,0,2.5Z"/><path class="cls-6" d="M111.53,89H94a1.25,1.25,0,0,1,0-2.5h17.53a1.25,1.25,0,0,1,0,2.5Z"/><path class="cls-6" d="M99,106.57H89a1.25,1.25,0,1,1,0-2.5H99a1.25,1.25,0,1,1,0,2.5Z"/><path class="cls-6" d="M116.54,106.57h-10a1.25,1.25,0,1,1,0-2.5h10a1.25,1.25,0,1,1,0,2.5Z"/><path class="cls-6" d="M102.82,54a1.25,1.25,0,0,1-1.25-1.25V40.22a1.25,1.25,0,1,1,2.5,0V52.74A1.25,1.25,0,0,1,102.82,54Z"/><path class="cls-6" d="M106.52,46.48H99A1.25,1.25,0,0,1,99,44h7.51a1.25,1.25,0,0,1,0,2.5Z"/><path class="cls-6" d="M111.53,126.6h-5a1.25,1.25,0,1,1,0-2.5h5a1.25,1.25,0,0,1,0,2.5Z"/><path class="cls-6" d="M144.08,116.58H111.53a1.25,1.25,0,0,1,0-2.5h32.55a1.25,1.25,0,1,1,0,2.5Z"/><path class="cls-6" d="M161.61,129.1H116.54a1.25,1.25,0,1,1,0-2.5h45.07a1.25,1.25,0,0,1,0,2.5Z"/><path class="cls-6" d="M181.64,134.11H85.79a1.25,1.25,0,1,1,0-2.5h95.84a1.25,1.25,0,0,1,0,2.5Z"/></g></g></svg>