<svg xmlns="http://www.w3.org/2000/svg" viewBox="0 0 199.01 194.83"><defs><style>.cls-1{font-size:24.61px;font-family:Ubuntu-Bold, Ubuntu;font-weight:700;}.cls-1,.cls-5{fill:#28292e;}.cls-2{letter-spacing:0.02em;}.cls-3{letter-spacing:-0.08em;}.cls-4{letter-spacing:0.02em;}</style></defs><title>help-del</title><g id="Слой_2" data-name="Слой 2"><g id="Слой_1-2" data-name="Слой 1"><text class="cls-1" transform="translate(34.42 152.9)">ДО<tspan class="cls-2" x="39.68" y="0">С</tspan><tspan class="cls-3" x="56.14" y="0">Т</tspan><tspan x="69.24" y="0">АВ</tspan><tspan class="cls-4" x="103.53" y="0">К</tspan><tspan x="120.98" y="0">А</tspan></text><path class="cls-5" d="M7.09,194.83,1.37,173l4.42-17.4L.69,136.2,7,111.49,3,96.32,4.84,81l-2-13.34L6.37,53.78,1.77,36.25l3.56-14L.68,9.28,0,7.55,21.71,1.88,39.16,6.29,58.67,1.2,83.45,7.46l15.22-4,15.41,1.86,13.38-2,13.87,3.5,17.59-4.59L173,5.83l13-4.61L192,0l5.37,15-3.6,14.17,4.61,17.54-3.56,14,1.95,13.13L195,89l4,15.39-6.28,24.71,5.11,19.45L193.41,166l5.42,20.65-5.76,1.44-13.63,4.85-14.21-3.59-17.59,4.59-14.05-3.55-13.17,1.95-15.23-1.83-15.43,4L65,188.24l-19.51,5.09L28,188.93,8.89,194Zm57.89-10,24.78,6.26,15.22-4L120.39,189l13.38-2,13.87,3.5,17.59-4.59,14.06,3.55,12.91-4.59,2.6-.65L190,166l4.42-17.4-5.11-19.45,6.28-24.71-4-15.17,1.86-15.36-2-13.34L195,46.73l-4.61-17.54,3.56-14L189.9,3.79l-3.16.64L173.14,9.27,158.93,5.68l-17.59,4.59L127.29,6.72,114.12,8.66,98.9,6.83l-15.43,4L58.68,4.6,39.18,9.69,21.73,5.28,4.38,9.81,8.77,22.07,5.17,36.23,9.78,53.77l-3.56,14L8.17,80.91,6.33,96.09l4,15.39L4.09,136.18,9.2,155.63,4.77,173l4.56,17.38L28,185.53l17.45,4.41Z"/><path class="cls-5" d="M36.29,92.89a6.48,6.48,0,1,0,6.48,6.48A6.48,6.48,0,0,0,36.29,92.89Zm0,9.29a2.81,2.81,0,1,1,2.82-2.81A2.81,2.81,0,0,1,36.29,102.18Z"/><path class="cls-5" d="M53.94,92.89a6.48,6.48,0,1,0,6.48,6.48A6.48,6.48,0,0,0,53.94,92.89Zm0,9.29a2.81,2.81,0,1,1,2.82-2.81A2.81,2.81,0,0,1,53.94,102.18Z"/><path class="cls-5" d="M71.59,92.89a6.48,6.48,0,1,0,6.48,6.48A6.48,6.48,0,0,0,71.59,92.89Zm0,9.29a2.81,2.81,0,1,1,2.82-2.81A2.81,2.81,0,0,1,71.59,102.18Z"/><path class="cls-5" d="M119.74,92.89a6.48,6.48,0,1,0,6.48,6.48A6.48,6.48,0,0,0,119.74,92.89Zm0,9.29a2.81,2.81,0,1,1,2.82-2.81A2.81,2.81,0,0,1,119.74,102.18Z"/><path class="cls-5" d="M167.88,92.89a6.48,6.48,0,1,0,6.48,6.48A6.48,6.48,0,0,0,167.88,92.89Zm0,9.29a2.81,2.81,0,1,1,2.82-2.81A2.81,2.81,0,0,1,167.88,102.18Z"/><path class="cls-5" d="M182,68.52H170.7l-12.82-2.57-.5,1.11.5,1.46v23.6l2.22,0a12.06,12.06,0,0,1,4.23-8.48.61.61,0,0,1,.87.13.66.66,0,0,1-.12.9,11,11,0,0,0-3.72,7.43c10-.15,14.33-.33,14.33,11.27h8.83v-3.1c-.81.35-1.1.64-1.46.64a.58.58,0,0,1-.59-.64c-1,.35-1.28.64-1.64.64s-.64-.29-.41-.64v-4c-.23-.35.06-.64.41-.64s.64.29,1.64.64a.57.57,0,0,1,.59-.64c.35,0,.64.29,1.46.64V73.77Zm-21.15.94a.64.64,0,1,1,.2-1.27l8.42,1.37a.64.64,0,0,1-.1,1.28h-.11Zm21.59,15.46h-8.2v-.38L166.08,82V76.72h16.39Z"/><path class="cls-5" d="M162.45,93.11H145.59v2h-4.08a6.47,6.47,0,1,0,.15.18l3.93,3v5h14.35v-4.1A8.16,8.16,0,0,1,162.45,93.11Zm-25.86,9.07a2.81,2.81,0,1,1,2.82-2.81A2.81,2.81,0,0,1,136.59,102.18Z"/><polygon class="cls-5" points="110.75 93.11 110.75 98.22 114.57 93.11 110.75 93.11"/><polygon class="cls-5" points="127.9 93.11 127.89 93.11 124.07 93.11 127.89 98.22 127.9 98.22 131.72 93.11 127.9 93.11"/><polygon class="cls-5" points="26.73 93.11 26.73 98.22 30.55 93.11 26.73 93.11"/><polygon class="cls-5" points="80.01 98.22 80.01 93.11 76.19 93.11 80.01 98.22"/><polygon class="cls-5" points="44.85 93.11 41.03 93.11 44.85 98.22 48.67 93.11 44.85 93.11"/><polygon class="cls-5" points="62.73 93.11 58.91 93.11 62.73 98.22 66.55 93.11 62.73 93.11"/><rect class="cls-5" x="104.6" y="95.16" width="2.05" height="2.05"/><path class="cls-5" d="M104.6,95.16V91.75h51.58v-30H14.48v30h8.15v9.56h2V91.75H86.16v3.41h-2v2h0v4.1h22.54v-4.1H90.26V91.75h12.3v3.41ZM19.3,86.64V65.85H152.17v20.8Z"/></g></g></svg>