<svg xmlns="http://www.w3.org/2000/svg" viewBox="0 0 34.19 29.1"><defs><style>.cls-1{fill:#28292e;}</style></defs><title>home-icon</title><g id="Слой_2" data-name="Слой 2"><g id="Слой_1-2" data-name="Слой 1"><path class="cls-1" d="M28.58,29.1h-8.1a.92.92,0,0,1-.92-.92V19.92h-5v8.25a.92.92,0,0,1-.92.92H5.58a.92.92,0,0,1-.92-.92V16.1H1.17a1.15,1.15,0,0,1-1.09-.76A1.14,1.14,0,0,1,.4,14.07L16.35.24a1.22,1.22,0,0,1,1.45,0l0,0L33.8,14.07a1.13,1.13,0,0,1,.33,1.26A1.19,1.19,0,0,1,33,16.1H29.5V28.18A.92.92,0,0,1,28.58,29.1Zm-7.49-1.53H28V15.49a.92.92,0,0,1,.92-.92H32l-15-12.94L2.15,14.57H5.27a.92.92,0,0,1,.92.92V27.57h6.88V19.31A.92.92,0,0,1,14,18.4h6.19a.92.92,0,0,1,.92.92ZM1.4,15.22h0Z"/><path class="cls-1" d="M30,15.93,17,4.66,4.09,15.93l-1-1.15L16.31,3.27a1.22,1.22,0,0,1,1.45,0l0,0L31,14.77Z"/></g></g></svg>