<svg xmlns="http://www.w3.org/2000/svg" viewBox="0 0 15.49 24"><defs><style>.cls-1{fill:#e6e6e6;}</style></defs><title>loc-icon</title><g id="Слой_2" data-name="Слой 2"><g id="Слой_1-2" data-name="Слой 1"><path class="cls-1" d="M14.93,10.62A7.74,7.74,0,1,0,.28,9.81a7.55,7.55,0,0,0,.26.77l.23.53L7.74,24l7-12.9ZM13.76,9.41a6.12,6.12,0,0,1-.21.63l-.18.4L7.74,20.85,2.12,10.46,1.92,10c-.08-.19-.14-.39-.2-.6a6.24,6.24,0,1,1,12,0Z"/><path class="cls-1" d="M7.74,3.14a4.53,4.53,0,1,0,4.53,4.53A4.53,4.53,0,0,0,7.74,3.14Zm0,7.57a3,3,0,1,1,3-3A3,3,0,0,1,7.74,10.71Z"/></g></g></svg>