<svg xmlns="http://www.w3.org/2000/svg" viewBox="0 0 29.36 32.49"><defs><style>.cls-1{fill:#28292e;}</style></defs><title>phone-icon</title><g id="Слой_2" data-name="Слой 2"><g id="Слой_1-2" data-name="Слой 1"><path class="cls-1" d="M6.46,31.9l.36-.19a4.22,4.22,0,0,0,2.57.78,3.55,3.55,0,0,0,.84-.1,4.63,4.63,0,0,0,1.84-.8,5.67,5.67,0,0,0,2.82.66c1.67,0,3.78-.48,5.45-3.67a6.23,6.23,0,0,0,2.48.71h.08a3.64,3.64,0,0,0,2.69-.84,36.12,36.12,0,0,0,3.1-3.08,2.51,2.51,0,0,0-.49-3.83c-.84-.59-1.69-1.23-2.5-1.85l-1.45-1.09-.33-.25a6.6,6.6,0,0,0-1.26-.82,2.66,2.66,0,0,0-3.2.56l-.29.29-.55.55c-1.39-1.07-2.63-2.11-3.78-3.17a40.86,40.86,0,0,1-4.57-5.05l.6-.6.43-.43A2.43,2.43,0,0,0,12,7.93a3.35,3.35,0,0,0-.75-2.07l-1-1.36L8.14,1.69,8,1.45A3.9,3.9,0,0,0,7.26.62,2.63,2.63,0,0,0,5.56,0a2.84,2.84,0,0,0-2,.84c-.85.83-1.68,1.67-2.52,2.51A3.45,3.45,0,0,0,0,6,8.12,8.12,0,0,0,1.13,9.79a58.1,58.1,0,0,0,5.58,7.76,45.19,45.19,0,0,0,7.06,6.67,55.34,55.34,0,0,0,5,3.46c-1.41,2.72-3,2.75-3.92,2.76a4.06,4.06,0,0,1-1.53-.25,3.94,3.94,0,0,0,.74-2.59A1.94,1.94,0,0,0,11.83,26a2.1,2.1,0,0,0-2.09,2.27,3.76,3.76,0,0,0,.89,2.16,2.86,2.86,0,0,1-.83.36,2.22,2.22,0,0,1-1.66-.34,3.86,3.86,0,0,0,.71-3.3,1.81,1.81,0,0,0-2.39-1,2,2,0,0,0-1.64,1.33,3.37,3.37,0,0,0,.68,2.9c-1,.23-1.9-1-2.51-2.06a.9.9,0,0,0-1.58.86C3.4,32.79,5.6,32.28,6.46,31.9ZM8.09,16.4A56.28,56.28,0,0,1,2.67,8.87a6.23,6.23,0,0,1-.88-3,1.63,1.63,0,0,1,.54-1.27q1.25-1.25,2.5-2.49a1.06,1.06,0,0,1,.72-.33A.85.85,0,0,1,6.11,2a2.48,2.48,0,0,1,.38.47l.22.31,2.1,2.79,1,1.36a1.59,1.59,0,0,1,.39,1,.63.63,0,0,1-.2.48l-.43.43-.45.45-.62-.76a.9.9,0,1,0-1.4,1.13L8.5,11.36l0,0a43.45,43.45,0,0,0,5.1,5.7c1.31,1.2,2.72,2.38,4.34,3.6l.07,0,.14.12,2.08,1.46a.9.9,0,0,0,1-1.47L20.08,20l.35-.35.3-.29a.9.9,0,0,1,.66-.34,1.28,1.28,0,0,1,.52.14,5,5,0,0,1,.91.61l.37.28,1.43,1.07c.83.63,1.68,1.28,2.56,1.89a.8.8,0,0,1,.39.55.79.79,0,0,1-.21.6,34.22,34.22,0,0,1-2.94,2.93c-.31.27-.56.4-1.51.4h0a5.85,5.85,0,0,1-2.48-.94,52.5,52.5,0,0,1-5.49-3.74A43.36,43.36,0,0,1,8.09,16.4Zm3.84,11.36H12a.57.57,0,0,1,.25,0,1.12,1.12,0,0,1-.1.77,3.37,3.37,0,0,1-.27.54,1.85,1.85,0,0,1-.36-.93C11.52,27.88,11.61,27.78,11.93,27.76ZM6.51,28c0-.07.12-.12.3-.15l.1,0a1.07,1.07,0,0,1,.27,0,2.29,2.29,0,0,1-.35,1.32A1.61,1.61,0,0,1,6.51,28Z"/></g></g></svg>