<svg xmlns="http://www.w3.org/2000/svg" viewBox="0 0 297.35 209.07"><defs><style>.cls-1{fill:#28292e;}</style></defs><title>service1</title><g id="Слой_2" data-name="Слой 2"><g id="Слой_1-2" data-name="Слой 1"><path class="cls-1" d="M24.34,132.78a1.49,1.49,0,0,1-1,.21,2.46,2.46,0,0,1-2.53-2.35l-.57-45.22a2.44,2.44,0,1,1,4.88-.18l.57,45.22A2.65,2.65,0,0,1,24.34,132.78Z"/><path class="cls-1" d="M39.41,132.59a1.49,1.49,0,0,1-1,.21,2.46,2.46,0,0,1-2.53-2.35l-.57-45.22a2.44,2.44,0,0,1,4.88-.18l.57,45.22A2.17,2.17,0,0,1,39.41,132.59Z"/><path class="cls-1" d="M39.07,87.26h0a20.25,20.25,0,0,1-8.66,2,18.91,18.91,0,0,1-8.63-1.86A20.08,20.08,0,0,1,9.76,69,20.83,20.83,0,0,1,20.24,51a2.9,2.9,0,0,1,3.43.81,2.7,2.7,0,0,1-.81,3.43A15.69,15.69,0,0,0,14.42,69a16.11,16.11,0,0,0,9.06,14,15.37,15.37,0,0,0,6.75,1.39,14.46,14.46,0,0,0,6.44-1.49A15.61,15.61,0,0,0,45.45,68.7a16.14,16.14,0,0,0-7.63-13.37A2.51,2.51,0,0,1,40.41,51,20.72,20.72,0,0,1,50.55,68.42,20.35,20.35,0,0,1,39.07,87.26Z"/><path class="cls-1" d="M31.64,76A2.17,2.17,0,0,1,29,75.64l-9.23-8.18a2.71,2.71,0,0,1-.87-1.78L18.78,53a2.44,2.44,0,1,1,4.88-.18l.11,11.53,6.7,5.83L37,64.3l-.12-11a2.44,2.44,0,0,1,4.88-.18l.11,12.08A1.92,1.92,0,0,1,41,67l-8.94,8.23C32.08,75.78,31.86,75.89,31.64,76Z"/><path class="cls-1" d="M41.77,164.53a2.64,2.64,0,0,1-3.21-.92,2.46,2.46,0,0,1,.81-3.43,15.15,15.15,0,0,0,7.22-13.45,16.11,16.11,0,0,0-9.06-14,17,17,0,0,0-6.52-1.5,14.75,14.75,0,0,0-6.66,1.6l-.22.11a15.88,15.88,0,0,0-8.78,14.21,15.29,15.29,0,0,0,8.29,13.6,2.48,2.48,0,1,1-2.26,4.41A20.39,20.39,0,0,1,22,128.66l.22-.11a21.13,21.13,0,0,1,8.66-2,21.18,21.18,0,0,1,8.63,1.86,20.66,20.66,0,0,1,2.54,36.26Z"/><path class="cls-1" d="M41.77,164.53a1.49,1.49,0,0,1-1,.21,2.46,2.46,0,0,1-2.53-2.35l-.12-11-6.7-5.83-6.48,5.92L25,163a2.44,2.44,0,0,1-4.88.18l-.1-12.63a1.92,1.92,0,0,1,.79-1.77l8.94-8.23a2.53,2.53,0,0,1,3.32,0l9.23,8.18a2.71,2.71,0,0,1,.87,1.78l-.11,11.64A2.38,2.38,0,0,1,41.77,164.53Z"/><path class="cls-1" d="M118.47,209.07H2.32a2.32,2.32,0,1,1,0-4.65H118.47a2.32,2.32,0,1,1,0,4.65Z"/><path class="cls-1" d="M39.49,204.43a2.32,2.32,0,0,1-2.32-2.32v-4.65a2.32,2.32,0,1,1,4.65,0v4.65A2.32,2.32,0,0,1,39.49,204.43Z"/><path class="cls-1" d="M118.47,199.78h-79a2.32,2.32,0,1,1,0-4.65h79a2.32,2.32,0,1,1,0,4.65Z"/><path class="cls-1" d="M257.86,204.43a2.32,2.32,0,0,1-2.32-2.32v-4.65a2.32,2.32,0,1,1,4.65,0v4.65A2.32,2.32,0,0,1,257.86,204.43Z"/><path class="cls-1" d="M72,195.14a2.32,2.32,0,0,1-2.32-2.32V174.23a2.32,2.32,0,1,1,4.65,0v18.58A2.32,2.32,0,0,1,72,195.14Z"/><path class="cls-1" d="M225.33,195.14a2.32,2.32,0,0,1-2.32-2.32V174.23a2.32,2.32,0,1,1,4.65,0v18.58A2.32,2.32,0,0,1,225.33,195.14Z"/><path class="cls-1" d="M127.77,176.55H72a2.32,2.32,0,1,1,0-4.65h55.75a2.32,2.32,0,1,1,0,4.65Z"/><path class="cls-1" d="M81.31,171.91A2.32,2.32,0,0,1,79,169.58V44.14a2.32,2.32,0,1,1,4.65,0V169.58A2.32,2.32,0,0,1,81.31,171.91Z"/><path class="cls-1" d="M216,171.91a2.32,2.32,0,0,1-2.32-2.32V44.14a2.32,2.32,0,1,1,4.65,0V169.58A2.32,2.32,0,0,1,216,171.91Z"/><path class="cls-1" d="M197.67,53.43a2.32,2.32,0,0,1-2.32-2.32,46.46,46.46,0,0,0-92.92,0,2.32,2.32,0,0,1-4.65,0,51.11,51.11,0,0,1,102.21,0A2.32,2.32,0,0,1,197.67,53.43Z"/><path class="cls-1" d="M99.89,55.76H86a2.32,2.32,0,0,1,0-4.65H99.89a2.32,2.32,0,0,1,0,4.65Z"/><path class="cls-1" d="M211.39,55.76H197.67a2.32,2.32,0,0,1,0-4.65h13.73a2.32,2.32,0,0,1,0,4.65Z"/><path class="cls-1" d="M197.67,55.76a2.32,2.32,0,0,1-2.32-2.32V51.11a2.32,2.32,0,1,1,4.65,0v2.33A2.32,2.32,0,0,1,197.67,55.76Z"/><path class="cls-1" d="M100.1,55.76a2.32,2.32,0,0,1-2.32-2.32V51.11a2.32,2.32,0,1,1,4.65,0v2.33A2.32,2.32,0,0,1,100.1,55.76Z"/><path class="cls-1" d="M81.31,46.47a7,7,0,1,1,7-7A7,7,0,0,1,81.31,46.47Zm0-9.29a2.32,2.32,0,1,0,2.32,2.32A2.32,2.32,0,0,0,81.31,37.17Z"/><path class="cls-1" d="M216,46.47a7,7,0,1,1,7-7A7,7,0,0,1,216,46.47Zm0-9.29a2.32,2.32,0,1,0,2.32,2.32A2.33,2.33,0,0,0,216,37.17Z"/><path class="cls-1" d="M188.16,53.43a2.32,2.32,0,0,1-2.32-2.32,37.17,37.17,0,0,0-74.34,0,2.32,2.32,0,1,1-4.65,0,41.81,41.81,0,1,1,83.63,0A2.32,2.32,0,0,1,188.16,53.43Z"/><path class="cls-1" d="M188.16,65a2.32,2.32,0,0,1-2.32-2.32V51.11a2.32,2.32,0,1,1,4.65,0V62.73A2.32,2.32,0,0,1,188.16,65Z"/><path class="cls-1" d="M211.39,65H188.16a2.32,2.32,0,0,1,0-4.65h23.23a2.32,2.32,0,0,1,0,4.65Z"/><path class="cls-1" d="M109.18,65a2.32,2.32,0,0,1-2.32-2.32V51.11a2.32,2.32,0,1,1,4.65,0V62.73A2.32,2.32,0,0,1,109.18,65Z"/><path class="cls-1" d="M109.18,65H86a2.32,2.32,0,0,1,0-4.65h23.23a2.32,2.32,0,0,1,0,4.65Z"/><path class="cls-1" d="M197.67,88.28H99.89a2.32,2.32,0,1,1,0-4.65h97.78a2.32,2.32,0,1,1,0,4.65Z"/><path class="cls-1" d="M99.89,144a2.32,2.32,0,0,1-2.32-2.32V86a2.32,2.32,0,0,1,4.65,0v55.75A2.32,2.32,0,0,1,99.89,144Z"/><path class="cls-1" d="M197.46,144H99.89a2.32,2.32,0,1,1,0-4.65h97.57a2.32,2.32,0,1,1,0,4.65Z"/><path class="cls-1" d="M197.46,144a2.32,2.32,0,0,1-2.32-2.32V86a2.32,2.32,0,0,1,4.65,0v55.75A2.32,2.32,0,0,1,197.46,144Z"/><path class="cls-1" d="M178.87,106.86h-60.4a2.32,2.32,0,1,1,0-4.65h60.4a2.32,2.32,0,1,1,0,4.65Z"/><path class="cls-1" d="M178.87,116.16h-60.4a2.32,2.32,0,1,1,0-4.65h60.4a2.32,2.32,0,1,1,0,4.65Z"/><path class="cls-1" d="M164.93,125.45H132.41a2.32,2.32,0,0,1,0-4.65h32.52a2.32,2.32,0,0,1,0,4.65Z"/><path class="cls-1" d="M141.7,158H123.12a2.32,2.32,0,1,1,0-4.65H141.7a2.32,2.32,0,1,1,0,4.65Z"/><path class="cls-1" d="M174.23,158H155.64a2.32,2.32,0,1,1,0-4.65h18.58a2.32,2.32,0,1,1,0,4.65Z"/><path class="cls-1" d="M148.78,60.4a2.32,2.32,0,0,1-2.32-2.32V34.85a2.32,2.32,0,1,1,4.65,0V58.08A2.32,2.32,0,0,1,148.78,60.4Z"/><path class="cls-1" d="M155.64,46.47H141.7a2.32,2.32,0,0,1,0-4.65h13.94a2.32,2.32,0,0,1,0,4.65Z"/><path class="cls-1" d="M164.93,195.14h-9.29a2.32,2.32,0,1,1,0-4.65h9.29a2.32,2.32,0,1,1,0,4.65Z"/><path class="cls-1" d="M225.33,176.55h-60.4a2.32,2.32,0,1,1,0-4.65h60.4a2.32,2.32,0,1,1,0,4.65Z"/><path class="cls-1" d="M257.86,199.78H174.23a2.32,2.32,0,1,1,0-4.65h83.63a2.32,2.32,0,1,1,0,4.65Z"/><path class="cls-1" d="M295,209.07H117.18a2.32,2.32,0,1,1,0-4.65H295a2.32,2.32,0,1,1,0,4.65Z"/></g></g></svg>