<svg xmlns="http://www.w3.org/2000/svg" viewBox="0 0 224.7 224.7"><defs><style>.cls-1{fill:#28292e;}</style></defs><title>service3</title><g id="Слой_2" data-name="Слой 2"><g id="Слой_1-2" data-name="Слой 1"><path class="cls-1" d="M221.89,0a2.81,2.81,0,0,0-2.81,2.81V81.45H115.16V2.81a2.81,2.81,0,0,0-5.62,0V81.45H96.9V12.92c0-.28-.28-.56-.56-.84s-.56-.56-.84-.56H23c-.28.28-.56.28-.84.56s-.56.56-.56.84V81.45h-16V2.81A2.81,2.81,0,0,0,0,2.81V221.89a2.65,2.65,0,0,0,2.81,2.81,2.65,2.65,0,0,0,2.81-2.81V205H109.54v16.85a2.81,2.81,0,0,0,5.62,0V205H219.08v16.85a2.81,2.81,0,0,0,5.62,0V2.81A2.65,2.65,0,0,0,221.89,0Zm-159,49.15L91.28,20.78V77.52Zm24.44,32.3H30.61L59,53.08Zm0-64.6L59,45.22,30.61,16.85ZM26.68,20.78,55.05,49.15,26.68,77.52ZM5.62,101.11H109.54v84.26h-8.43V142.12c0-.28-.28-.56-.56-.84s-.56-.56-.84-.56H52.24c-.28.28-.56.28-.84.56s-.56.56-.56.84v13.76H24.15a2.81,2.81,0,0,0-2.81,2.81v26.68H5.62Zm66.29,64.6L56.17,181.44V150Zm-11.8-19.66H91.56L75.84,161.78Zm15.73,23.59,15.73,15.73H60.11Zm3.93-3.93L95.5,150v31.46ZM50.56,161.5v23.87H26.68V161.5Zm168.52,37.92H5.62V191H219.08Zm-47.19-44.94,27-27v53.93Zm22.75,30.9H141l27-27ZM168,150.55l-27-27h53.93Zm-4.21,3.93-27,27V127.52Zm55.33,30.9H204.19V119.65c0-.28-.28-.56-.56-.84s-.56-.56-.84-.56H134.26a2.55,2.55,0,0,0-2,.84c-.28.28-.56.56-.56.84v65.44H115.16V101.11H219.08Zm0-89.88H5.62V87.07H219.08Z"/></g></g></svg>