<svg xmlns="http://www.w3.org/2000/svg" viewBox="0 0 298.94 77.44"><defs><style>.cls-1{fill:#28292e;}</style></defs><title>service2</title><g id="Слой_2" data-name="Слой 2"><g id="Слой_1-2" data-name="Слой 1"><path class="cls-1" d="M38.34,54.68A11.38,11.38,0,1,0,49.73,66.06,11.39,11.39,0,0,0,38.34,54.68Zm0,16.33a4.95,4.95,0,1,1,4.95-4.95A4.95,4.95,0,0,1,38.34,71Z"/><path class="cls-1" d="M69.37,54.68A11.38,11.38,0,1,0,80.76,66.06,11.39,11.39,0,0,0,69.37,54.68Zm0,16.33a4.95,4.95,0,1,1,4.95-4.95A4.95,4.95,0,0,1,69.37,71Z"/><path class="cls-1" d="M100.41,54.68a11.38,11.38,0,1,0,11.39,11.39A11.39,11.39,0,0,0,100.41,54.68Zm0,16.33a4.95,4.95,0,1,1,4.95-4.95A4.95,4.95,0,0,1,100.41,71Z"/><path class="cls-1" d="M185,54.68a11.38,11.38,0,1,0,11.39,11.39A11.39,11.39,0,0,0,185,54.68ZM185,71A4.95,4.95,0,1,1,190,66.06,4.95,4.95,0,0,1,185,71Z"/><path class="cls-1" d="M269.68,54.68a11.38,11.38,0,1,0,11.39,11.39A11.39,11.39,0,0,0,269.68,54.68Zm0,16.33a4.95,4.95,0,1,1,4.95-4.95A4.95,4.95,0,0,1,269.68,71Z"/><path class="cls-1" d="M294.55,11.83H274.63L252.1,7.31l-.88,2,.88,2.57V53.32l3.91,0a21.2,21.2,0,0,1,7.43-14.91,1.07,1.07,0,0,1,1.53.22,1.16,1.16,0,0,1-.22,1.58,19.3,19.3,0,0,0-6.55,13.07c17.58-.26,25.2-.58,25.2,19.82h15.53V67.63c-1.43.62-1.94,1.13-2.56,1.13a1,1,0,0,1-1-1.13c-1.75.62-2.26,1.13-2.88,1.13s-1.13-.51-.72-1.13V60.68c-.41-.62.1-1.13.72-1.13s1.13.51,2.88,1.13a1,1,0,0,1,1-1.13c.62,0,1.13.51,2.56,1.13V21.07Zm-37.18,1.65a1.13,1.13,0,1,1,.36-2.23l14.8,2.41a1.13,1.13,0,0,1-.18,2.25h-.19Zm38,27.17H280.92V40l-14.41-4.53V26.24h28.82Z"/><path class="cls-1" d="M260.13,55.07H230.49v3.6h-7.17a11.37,11.37,0,1,0,.26.31l6.92,5.29v8.81h25.22V65.87A14.34,14.34,0,0,1,260.13,55.07ZM214.66,71a4.95,4.95,0,1,1,4.95-4.95A4.95,4.95,0,0,1,214.66,71Z"/><polygon class="cls-1" points="169.24 55.07 169.24 64.05 175.96 55.07 169.24 55.07"/><polygon class="cls-1" points="199.38 55.07 199.38 55.07 192.66 55.07 199.38 64.05 199.38 64.05 206.1 55.07 199.38 55.07"/><polygon class="cls-1" points="21.53 55.07 21.53 64.05 28.24 55.07 21.53 55.07"/><polygon class="cls-1" points="115.2 64.05 115.2 55.07 108.48 55.07 115.2 64.05"/><polygon class="cls-1" points="53.39 55.07 46.67 55.07 53.39 64.05 60.11 55.07 53.39 55.07"/><polygon class="cls-1" points="84.82 55.07 78.1 55.07 84.82 64.05 91.54 55.07 84.82 55.07"/><rect class="cls-1" x="158.43" y="58.67" width="3.6" height="3.6"/><path class="cls-1" d="M158.43,58.67v-6h90.68V0H0V52.67H14.32V69.48h3.6V52.67H126v6h-3.6v3.6h0v7.21H162V62.27H133.21v-9.6h21.62v6Zm-150-15V7.14H242.06V43.7Z"/></g></g></svg>