<svg xmlns="http://www.w3.org/2000/svg" viewBox="0 0 25.55 25.2"><title>star-icon</title><g id="Слой_2" data-name="Слой 2"><g id="Слой_1-2" data-name="Слой 1"><path d="M7.3,2.52H4.92L4.18.25a.37.37,0,0,0-.7,0L2.75,2.52H.37a.37.37,0,0,0-.22.66l1.93,1.4L1.34,6.84a.37.37,0,0,0,.56.41l1.93-1.4,1.93,1.4a.37.37,0,0,0,.56-.41L5.59,4.58l1.93-1.4A.37.37,0,0,0,7.3,2.52Z"/><path d="M7.3,11.45H4.92L4.18,9.19a.37.37,0,0,0-.7,0l-.73,2.26H.37a.37.37,0,0,0-.22.66l1.93,1.4-.73,2.26a.37.37,0,0,0,.56.41l1.93-1.4,1.93,1.4a.37.37,0,0,0,.56-.41l-.73-2.26,1.93-1.4A.37.37,0,0,0,7.3,11.45Z"/><path d="M7.3,20.39H4.92l-.73-2.26a.37.37,0,0,0-.7,0l-.73,2.26H.37a.37.37,0,0,0-.22.66l1.93,1.4-.73,2.26a.37.37,0,0,0,.56.41l1.93-1.4,1.93,1.4a.37.37,0,0,0,.56-.41l-.73-2.26,1.93-1.4A.37.37,0,0,0,7.3,20.39Z"/><path d="M25,2.56H10.73a.51.51,0,0,0-.51.51V4.6a.51.51,0,0,0,.51.51H25a.51.51,0,0,0,.51-.51V3.06A.52.52,0,0,0,25,2.56Z"/><path d="M25,11.49H10.73a.51.51,0,0,0-.51.51v1.53a.51.51,0,0,0,.51.51H25a.51.51,0,0,0,.51-.51V12A.52.52,0,0,0,25,11.49Z"/><path d="M25,20.43H10.73a.51.51,0,0,0-.51.51v1.53a.51.51,0,0,0,.51.51H25a.51.51,0,0,0,.51-.51V20.95A.52.52,0,0,0,25,20.43Z"/></g></g></svg>