<svg xmlns="http://www.w3.org/2000/svg" viewBox="0 0 36.53 20.98"><defs><style>.cls-1{fill:#28292e;}</style></defs><title>vk-dark-icon_1</title><g id="Слой_2" data-name="Слой 2"><g id="Слой_1-2" data-name="Слой 1"><path class="cls-1" d="M8,2.17a28,28,0,0,0,4,7,3.75,3.75,0,0,0,.81.74.61.61,0,0,0,1-.31,8.8,8.8,0,0,0,.37-2.14c0-1.44,0-2.39-.08-3.83a1.87,1.87,0,0,0-1.74-2C12,1.6,12,1.26,12.23.91A2.68,2.68,0,0,1,14.42,0c1.37-.07,2.75,0,4.12,0a8.21,8.21,0,0,1,1.67.17,1.53,1.53,0,0,1,1.22,1.36,5.81,5.81,0,0,1,.08,1.1c0,1.57-.11,3.15-.13,4.72a8.22,8.22,0,0,0,.17,1.85c.18.84.76,1,1.34.44a20.52,20.52,0,0,0,2-2.51A25.09,25.09,0,0,0,27.58,2c.37-.93.65-1.14,1.66-1.14H34.9a3.4,3.4,0,0,1,1,.13.86.86,0,0,1,.6,1.11,9.39,9.39,0,0,1-1.67,3.32c-1.16,1.63-2.37,3.22-3.55,4.83a6.08,6.08,0,0,0-.41.65,1.34,1.34,0,0,0,.23,1.91c1,1.06,2.13,2,3.12,3.14a18.5,18.5,0,0,1,2,2.55,1.45,1.45,0,0,1-1.08,2.41c-.85.12-5,0-5.22,0A4.07,4.07,0,0,1,27,19.78c-.88-.85-1.67-1.77-2.52-2.65a7,7,0,0,0-.82-.74c-.69-.53-1.37-.41-1.69.4a15.57,15.57,0,0,0-.52,2.68A1.42,1.42,0,0,1,20,20.85a14,14,0,0,1-7.57-1.43,16,16,0,0,1-5-4.39A53.05,53.05,0,0,1,1.8,5.89C1.72,5.72.1,2.28.06,2.12A1,1,0,0,1,.51.87c.29-.11,5.63,0,5.71,0A1.86,1.86,0,0,1,8,2.17Z"/></g></g></svg>