<svg xmlns="http://www.w3.org/2000/svg" viewBox="0 0 24.81 14.26"><defs><style>.cls-1{fill:#28292e;}</style></defs><title>vk-dark</title><g id="Слой_2" data-name="Слой 2"><g id="Слой_1-2" data-name="Слой 1"><path class="cls-1" d="M5.44,1.47A19,19,0,0,0,8.17,6.24a2.55,2.55,0,0,0,.55.5.42.42,0,0,0,.7-.21,6,6,0,0,0,.25-1.46c0-1,0-1.62-.06-2.6A1.27,1.27,0,0,0,8.43,1.14c-.28-.05-.31-.29-.13-.52A1.82,1.82,0,0,1,9.79,0c.93-.05,1.87,0,2.8,0a5.57,5.57,0,0,1,1.14.12,1,1,0,0,1,.83.93,4,4,0,0,1,.06.75c0,1.07-.08,2.14-.09,3.21a5.59,5.59,0,0,0,.12,1.26c.13.57.51.71.91.3a13.94,13.94,0,0,0,1.36-1.71,17,17,0,0,0,1.81-3.51c.25-.63.44-.77,1.13-.77H23.7a2.31,2.31,0,0,1,.68.09.59.59,0,0,1,.4.76,6.38,6.38,0,0,1-1.14,2.25C22.86,4.8,22,5.88,21.24,7a4.13,4.13,0,0,0-.28.44.91.91,0,0,0,.16,1.3c.7.72,1.44,1.39,2.12,2.13a12.57,12.57,0,0,1,1.33,1.74,1,1,0,0,1-.73,1.64c-.58.08-3.4,0-3.55,0a2.76,2.76,0,0,1-2-.78c-.6-.57-1.14-1.2-1.71-1.8a4.78,4.78,0,0,0-.55-.5c-.47-.36-.93-.28-1.15.27a10.58,10.58,0,0,0-.36,1.82,1,1,0,0,1-1,.94,9.5,9.5,0,0,1-5.14-1,10.87,10.87,0,0,1-3.41-3A36.05,36.05,0,0,1,1.22,4C1.17,3.89.07,1.55,0,1.44A.66.66,0,0,1,.34.59C.54.52,4.16.59,4.22.6A1.26,1.26,0,0,1,5.44,1.47Z"/></g></g></svg>