<svg xmlns="http://www.w3.org/2000/svg" viewBox="0 0 82.8 81.54"><defs><style>.cls-1{fill:#fff;}.cls-2{fill:#242424;}</style></defs><title>cat4</title><g id="Слой_2" data-name="Слой 2"><g id="Слой_1-2" data-name="Слой 1"><polygon class="cls-1" points="41.4 0 14.38 9.84 0 34.74 4.99 63.06 27.02 81.54 55.78 81.54 77.8 63.06 82.8 34.74 68.42 9.84 41.4 0"/><path class="cls-2" d="M53.7,58.91H29.1V39.71c1.44,1,5.74,4.83,12,4.89,6.56.06,11.15-4,12.56-4.89Z"/><path class="cls-2" d="M41.13,41.43c-6.29-.06-10.59-3.93-12-4.89v2.25c1.44,1,5.74,4.83,12,4.89,6.56.06,11.15-4,12.56-4.89V36.54C52.28,37.48,47.69,41.49,41.13,41.43Z"/><path class="cls-2" d="M41.16,38.18c-5.58-.06-9.4-3.93-10.68-4.89v2.25c1.28,1,5.1,4.83,10.68,4.89,5.82.06,9.9-4,11.15-4.89V33.29C51.06,34.23,47,38.25,41.16,38.18Z"/><ellipse class="cls-2" cx="41.4" cy="25.07" rx="11.96" ry="11.82"/><rect class="cls-2" x="23.43" y="60.22" width="35.94" height="8.07"/></g></g></svg>