<svg xmlns="http://www.w3.org/2000/svg" viewBox="0 0 82.8 81.54"><defs><style>.cls-1{fill:#fff;}.cls-2{fill:#242424;}</style></defs><title>cat7</title><g id="Слой_2" data-name="Слой 2"><g id="Слой_1-2" data-name="Слой 1"><polygon class="cls-1" points="41.4 0 14.38 9.84 0 34.74 4.99 63.06 27.02 81.54 55.78 81.54 77.8 63.06 82.8 34.74 68.42 9.84 41.4 0"/><path class="cls-2" d="M59.54,22.94c-6.42,0-11.62,6.16-11.62,13.75s5.2,13.75,11.62,13.75,11.62-6.16,11.62-13.75S66,22.94,59.54,22.94Zm0,.74a.84.84,0,1,1-.84.84A.84.84,0,0,1,59.54,23.68Zm0,25.83a.84.84,0,1,1,.84-.84A.84.84,0,0,1,59.54,49.52Zm0-2.46c-4.87,0-8.83-4.65-8.83-10.37s4-10.37,8.83-10.37S68.37,31,68.37,36.69,64.41,47.06,59.54,47.06Z"/><path class="cls-2" d="M59.54,36a.65.65,0,0,0,.65-.65h-1.3A.65.65,0,0,0,59.54,36Z"/><path class="cls-2" d="M59.54,34.74l1.37.55a1.62,1.62,0,0,0-.72-2.36,2.06,2.06,0,0,1-.63.69,1.43,1.43,0,0,1-1.55.24,1.58,1.58,0,0,0,.15,1.43Z"/><path class="cls-2" d="M59.54,27.26c-4.36,0-7.9,4.23-7.9,9.44s3.54,9.44,7.9,9.44,7.9-4.23,7.9-9.44S63.89,27.26,59.54,27.26Zm0,4.23a2.63,2.63,0,1,1-2.28,2.6A2.46,2.46,0,0,1,59.54,31.49Zm3.9,8.46v1.3a.65.65,0,0,1-.65.65H56.29a.65.65,0,0,1-.65-.65v-2.6a1.3,1.3,0,0,1,1.3-1.3h1.3l1.3,2,1.3-2h1.3a1.3,1.3,0,0,1,1.3,1.3Z"/><path class="cls-2" d="M13.51,35V56.56H44.73V35Zm1.77,20.35a.74.74,0,1,1,.74-.74A.74.74,0,0,1,15.28,55.35Zm0-18a.74.74,0,1,1,.74-.74A.74.74,0,0,1,15.28,37.33Zm26.2,17.1H16.77V37.14h24.7Zm1.5.93a.74.74,0,1,1,.74-.74A.74.74,0,0,1,43,55.35Zm0-18a.74.74,0,1,1,.74-.74A.74.74,0,0,1,43,37.33Z"/><path class="cls-2" d="M23.54,43.64l1.37.55a1.62,1.62,0,0,0-.72-2.36,2.05,2.05,0,0,1-.63.69,1.43,1.43,0,0,1-1.55.24,1.58,1.58,0,0,0,.15,1.43Z"/><path class="cls-2" d="M23.54,44.94a.65.65,0,0,0,.65-.65h-1.3A.65.65,0,0,0,23.54,44.94Z"/><path class="cls-2" d="M17.52,37.88v15.8H40.73V37.88Zm6,2.51a2.63,2.63,0,0,1,0,5.21,2.63,2.63,0,0,1,0-5.21Zm3.9,8.46v1.3a.65.65,0,0,1-.65.65H20.28a.65.65,0,0,1-.65-.65v-2.6a1.3,1.3,0,0,1,1.3-1.3h1.3l1.3,2,1.3-2h1.3a1.3,1.3,0,0,1,1.3,1.3ZM38,49.66H30.62a.71.71,0,0,1,0-1.41H38a.71.71,0,0,1,0,1.41Zm0-3H30.62a.71.71,0,0,1,0-1.41H38a.71.71,0,0,1,0,1.41Zm0-3H30.62a.71.71,0,0,1,0-1.41H38a.71.71,0,0,1,0,1.41Z"/></g></g></svg>