<svg xmlns="http://www.w3.org/2000/svg" viewBox="0 0 60.23 49.73"><defs><style>.cls-1{fill:#e6e6e6;}</style></defs><title>like-icon</title><g id="Слой_2" data-name="Слой 2"><g id="Слой_1-2" data-name="Слой 1"><path class="cls-1" d="M43.94,19.47V47.88a1.85,1.85,0,0,0,1.85,1.85h7.59A1.85,1.85,0,0,0,55.2,48.2l5-28.41a1.85,1.85,0,0,0-1.82-2.17H45.79A1.85,1.85,0,0,0,43.94,19.47Zm3.69,1.85h8.55L51.83,46h-4.2Z"/><path class="cls-1" d="M0,23.88a5.19,5.19,0,0,0,2.66,4.56,8.27,8.27,0,0,0-.51,1.85,1.69,1.69,0,0,0,0,.19,5.2,5.2,0,0,0,2.34,4.63,4,4,0,0,0-.67,2.15A5.18,5.18,0,0,0,6.7,42a5.58,5.58,0,0,0,3.72,7.64,1.84,1.84,0,0,0,.39,0H30c1.55,0,6-2,9.69-3.76h.61a1.85,1.85,0,0,0,1.85-1.85v-21a1.85,1.85,0,0,0-1.62-1.83c-.83-.1-2.87-.36-3.94-.52-1-1.33-4-6.31-6.41-10.73V3.83a1.85,1.85,0,0,0-.14-.7A5.46,5.46,0,0,0,25.83,0a1.89,1.89,0,0,0-.36,0c-4.62.2-6.38,4.38-7.22,6.39-1.07,2.58-.71,7.33.22,10.29a5.14,5.14,0,0,1,.28,1.85H4.28a1.8,1.8,0,0,0-.34,0A5.12,5.12,0,0,0,0,23.88Zm3.69,0c0-1.1.48-1.5.85-1.64H20.08a1.85,1.85,0,0,0,1.45-.71c.17-.22,1.64-2.24.46-6-.84-2.7-.89-6.42-.36-7.7.89-2.11,1.83-4,3.81-4.17a1.8,1.8,0,0,1,1,.62v6.2a1.85,1.85,0,0,0,.23.89c7,12.63,7.79,12.77,8.75,12.92.52.09,1.89.27,3,.42V42.46C35,44.11,30.79,45.93,29.9,46H11.07a1.73,1.73,0,0,1-1.15-1.78,2.46,2.46,0,0,1,.93-1.7,1.87,1.87,0,0,0,.66-2,1.84,1.84,0,0,0-1.62-1.32c-.39,0-2.39-.3-2.39-1.95a3.48,3.48,0,0,1,1.15-1.2A1.85,1.85,0,0,0,8,32.71c-.08,0-2.15-.48-2.16-2a4.06,4.06,0,0,1,.86-1.94,1.87,1.87,0,0,0,.4-1.86,1.85,1.85,0,0,0-1.42-1.24C5.47,25.67,3.69,25.29,3.69,23.88Z"/></g></g></svg>