<svg xmlns="http://www.w3.org/2000/svg" viewBox="0 0 36 23.44"><defs><style>.cls-1{fill:#e6e6e6;}</style></defs><title>mail-icon</title><g id="Слой_2" data-name="Слой 2"><g id="Слой_1-2" data-name="Слой 1"><path class="cls-1" d="M0,1.26V22.19a1.26,1.26,0,0,0,1.26,1.26H34.74A1.26,1.26,0,0,0,36,22.19V1.26A1.26,1.26,0,0,0,34.74,0H1.26A1.26,1.26,0,0,0,0,1.26Zm3,.42H33L18,15.19ZM1.67,2.8l9.58,8.63L1.67,20.66Zm32.65,0V20.66l-9.58-9.22ZM12.49,12.49l4.94,4.45a.84.84,0,0,0,1.13,0l4.94-4.45,9.63,9.27H2.86l9.63-9.27Z"/></g></g></svg>