<svg xmlns="http://www.w3.org/2000/svg" viewBox="0 0 280.03 273.88"><defs><style>.cls-1{fill:#28292e;}</style></defs><title>natural</title><g id="Слой_2" data-name="Слой 2"><g id="Слой_1-2" data-name="Слой 1"><path class="cls-1" d="M126,273.88,90.69,265l-27.76,7.25-24.84-6.27L10.67,273.1l-1.5.72-7.64-29.1L7.83,220,.56,192.28,9.5,157.12,3.8,135.44l2.64-21.79L3.63,94.75,8.65,75,2.1,50,7.18,30,0,10.11l29.1-7.6L53.94,8.79,81.7,1.54,117,10.45l21.75-5.68,21.85,2.63,19-2.8,19.81,5,25-6.54,20.07,5.07,18.68-6.64L270.62,0l7.12,19.87L272.63,40l6.56,25-.06.25-5,19.62,2.79,18.77,0,.13-2.61,21.54L280,147.06l-.06.25-8.87,34.91,7.27,27.68-.06.25-6.23,24.51,7.46,28.41-7,1.75-19,6.78-20.16-5.09-25,6.54-19.92-5-18.83,2.78-21.74-2.62Zm-35.28-11,35.27,8.91,21.75-5.68,21.85,2.63,19-2.8,19.81,5,25-6.54,20.07,5.07,18.54-6.6,5.12-1.29L270,234.67l.06-.25,6.23-24.51L269,182.23l.06-.25L278,147.07l-5.69-21.68,0-.19,2.62-21.6L272.1,84.7l5-19.75-6.56-25,.06-.25,5-19.76L269.32,2.3l-5.74,1.15-19,6.78L224.38,5.14l-25,6.54-19.92-5L160.59,9.42,138.85,6.8,117,12.52,81.71,3.61,53.95,10.85,29.11,4.58,2.67,11.48l6.6,18.44L4.16,50l6.56,25-5,19.87,2.79,18.77L5.83,135.3l5.73,21.81L2.62,192.27l7.27,27.68L3.6,244.71l6.92,26.36,27.56-7.2,24.84,6.27Z"/><path class="cls-1" d="M180,158.3l-5-9.89-2.22-9.93-.81-1.37-4.82-4.22-.16-.31-2.44-2-3.39-3-.71-.34-1.09-.88-12.66-2.17-.88-3-2.5-1.84-15.08.29-.68.11-1.34.4-5.66-3.72-1,.15-1.52-1-1.86-.42L86.46,120,85,122.87l-3.82,1.58-9.81,1.92L70.1,129l-2.44,1L67,141.56l4.1,11.1-11.43,4.62-1.58,2.05-1,7.83.23,1.41,1.56,3.32-4.44,5.44,6.1,13.36,1.42,11.62L99,206l39.5-6.27,31.78-17.71,10-11.19Zm-51.72-36,15.08-.28,3.47,11.81-22.21,3.67-14.8-9.67Zm-11.73-4.56,6.63,4.56-6.76.28-23,13.57-6.54-13.57Zm-31.74,8.65L92.59,138l-3.34,4.2L77.9,139.92l-6.06-11.05Zm11.76,62.88-9.66-2.74-18.11.4L59.62,167.5l1-7.84,17.3-7,25.46,29.09Zm13.24-26.32L95.72,145.85l14.05-7.61,11.48,5.51,8.33,12.33Zm28.69-2-13.67-16.83,25.31-4.45-1.81-11.87,11.14,1.83,10.8,9.47,2.85,12.74Z"/><path class="cls-1" d="M218.91,103.77l7-7.43-7-7.42,1.3-10.13-10-1.88-4.9-9L196,72.32,186.8,68l-4.89,9-10,1.9,1.31,10.13-7,7.43,7,7.42-1.3,10.13,10,1.88,4.9,9,9.23-4.38,9.23,4.36,4.89-9,10-1.9-.13-1ZM196,115.94a19.59,19.59,0,1,1,19.59-19.59A19.58,19.58,0,0,1,196,115.94Z"/><path class="cls-1" d="M196,80.47a15.89,15.89,0,1,0,15.89,15.89A15.91,15.91,0,0,0,196,80.47Zm-.32,23.25-7.31-6.1L187,96.44l2.37-2.84,5.86,4.88,8.32-10.22,2.87,2.33Z"/></g></g></svg>