<svg xmlns="http://www.w3.org/2000/svg" viewBox="0 0 42.53 37.75"><defs><style>.cls-1{fill:#a7171d;}</style></defs><title>popular-btn</title><g id="Слой_2" data-name="Слой 2"><g id="Слой_1-2" data-name="Слой 1"><path class="cls-1" d="M38.59,15a.9.9,0,0,1-.86-.66,17.08,17.08,0,0,0-32.91,0,.9.9,0,0,1-1.73-.48,18.87,18.87,0,0,1,36.37,0A.9.9,0,0,1,38.59,15Z"/><path class="cls-1" d="M21.27,37.75A18.85,18.85,0,0,1,3.08,23.92a.9.9,0,0,1,1.73-.48,17.08,17.08,0,0,0,32.91,0,.9.9,0,0,1,1.73.48A18.85,18.85,0,0,1,21.27,37.75Z"/><path class="cls-1" d="M38.59,15a.89.89,0,0,1-.38-.08l-6.49-3.06a.9.9,0,0,1,.77-1.62l5.68,2.67,2.67-5.68A.9.9,0,0,1,42.46,8L39.4,14.47A.9.9,0,0,1,38.59,15Z"/><path class="cls-1" d="M.9,31.07a.9.9,0,0,1-.81-1.28l3.06-6.49a.9.9,0,0,1,1.19-.43h0l6.49,3.06a.9.9,0,0,1-.77,1.62L4.38,24.88,1.71,30.56A.9.9,0,0,1,.9,31.07Z"/></g></g></svg>