<svg xmlns="http://www.w3.org/2000/svg" viewBox="0 0 280.03 273.88"><defs><style>.cls-1{fill:#28292e;}</style></defs><title>price</title><g id="Слой_2" data-name="Слой 2"><g id="Слой_1-2" data-name="Слой 1"><path class="cls-1" d="M126,273.88,90.69,265l-27.76,7.25-24.84-6.27L10.67,273.1l-1.49.72-7.64-29.1L7.83,220,.56,192.28,9.5,157.12,3.8,135.44l2.64-21.79L3.63,94.75,8.65,75,2.1,50,7.18,30,0,10.11l29.1-7.6L53.94,8.79,81.7,1.54,117,10.45l21.75-5.68,21.85,2.63,19-2.8,19.81,5,25-6.54,20.07,5.07,18.68-6.64L270.62,0l7.12,19.87L272.63,40l6.56,25-5,19.87,2.79,18.77-2.63,21.68L280,147.06l-8.94,35.16,7.27,27.68-6.29,24.76,7.46,28.41-7,1.75-19,6.78-20.16-5.09-25,6.54-19.92-5-18.83,2.78-21.74-2.62Zm-35.28-11,35.27,8.91,21.75-5.68,21.85,2.63,19-2.8,19.81,5,25-6.54,20.07,5.07,18.54-6.6,5.12-1.29L270,234.67l6.29-24.76L269,182.23,278,147.07l-5.7-21.68,2.64-21.79L272.1,84.7l5-19.75-6.56-25,5.09-20L269.32,2.3l-5.74,1.15-19,6.78L224.38,5.14l-25,6.54-19.92-5L160.59,9.42,138.85,6.8,117,12.52,81.71,3.61,53.95,10.85,29.11,4.58,2.67,11.48l6.6,18.44L4.16,50l6.56,25-5,19.87,2.79,18.77L5.83,135.3l5.73,21.81L2.62,192.27l7.27,27.68L3.6,244.71l6.93,26.36,27.56-7.2,24.84,6.27Z"/><path class="cls-1" d="M126.94,181.61h0a24.11,24.11,0,0,1-.31,4.46l-.77,15.07a2,2,0,0,1-2,2L100.18,203a2,2,0,0,1-2-2l-.46-12.46-22.3-26.92a23.22,23.22,0,0,1-6.31-12.15L69,148.08l-3.85-37.84A5.7,5.7,0,0,1,67,105.32a4.55,4.55,0,0,1,6.61.46c1.38,1.69,2.15,6.77,2.46,8.15A156.6,156.6,0,0,1,77.87,131v1.08a17.26,17.26,0,0,0,1.54,6.15C84.33,149.16,94.49,163,94.49,163l.62.77a1.63,1.63,0,0,0,2,.46,1.56,1.56,0,0,0,.62-2L84.33,140.39a5.75,5.75,0,0,1,2-7.54,5.58,5.58,0,0,1,7.54,1.69l14,17.84a17.45,17.45,0,0,0,3.85,3.69c12.46,9.08,14.15,18.15,15.38,22.92C126.79,179.15,126.79,180.08,126.94,181.61Z"/><path class="cls-1" d="M206.77,105.63c-1.38,1.69-2.15,6.77-2.46,8.15a156.6,156.6,0,0,0-1.85,17.07v1.08a17.26,17.26,0,0,1-1.54,6.15C196,149.16,185.85,163,185.85,163l-.62.77a1.63,1.63,0,0,1-2,.46,1.56,1.56,0,0,1-.62-2L196,140.39a5.75,5.75,0,0,0-2-7.54,5.58,5.58,0,0,0-7.54,1.69l-14,17.84a17.45,17.45,0,0,1-3.85,3.69c-12.46,9.08-14.15,18.15-15.38,22.92a20.45,20.45,0,0,0-.15,2.61h0a24.11,24.11,0,0,0,.31,4.46l.77,15.07a2,2,0,0,0,2,2l24-.15a2,2,0,0,0,2-2l.46-12.46,22.3-26.92a23.22,23.22,0,0,0,6.31-12.15l.15-1.38,3.85-37.84a5.7,5.7,0,0,0-1.85-4.92C211.54,103.78,208.77,103.32,206.77,105.63Z"/><path class="cls-1" d="M155.3,113.57h-2.41v2.23h2.41a1.75,1.75,0,0,0,1.09-.3,1,1,0,0,0,.39-.86Q156.78,113.57,155.3,113.57Z"/><path class="cls-1" d="M178.44,105.76h-6.15a31.94,31.94,0,0,0-4.92-12l4.31-4.31a2.69,2.69,0,0,0,0-3.85l-5.23-5.23a2.69,2.69,0,0,0-3.85,0l-4.31,4.31a35.94,35.94,0,0,0-12-4.92V73.62a2.76,2.76,0,0,0-2.77-2.77h-7.38a2.76,2.76,0,0,0-2.77,2.77v6.15a29.62,29.62,0,0,0-12,4.92l-4.31-4.31a2.69,2.69,0,0,0-3.85,0L108,85.61a2.69,2.69,0,0,0,0,3.85l4.31,4.46a35.93,35.93,0,0,0-4.92,12h-6.15a2.76,2.76,0,0,0-2.77,2.77v7.38a2.76,2.76,0,0,0,2.77,2.77h6.15a31.94,31.94,0,0,0,4.92,12L108,135.14a2.69,2.69,0,0,0,0,3.85l5.23,5.23a2.69,2.69,0,0,0,3.85,0l4.31-4.31a35.94,35.94,0,0,0,12,4.92V151a2.76,2.76,0,0,0,2.77,2.77h7.38A2.76,2.76,0,0,0,146.3,151v-6.15a31.94,31.94,0,0,0,12-4.92l4.31,4.15a2.69,2.69,0,0,0,3.85,0l5.23-5.23a2.69,2.69,0,0,0,0-3.85l-4.31-4.31a35.94,35.94,0,0,0,4.92-12h6.15a2.76,2.76,0,0,0,2.77-2.77v-7.38A2.76,2.76,0,0,0,178.44,105.76Zm-48,7.42a5,5,0,0,1-2.21,1.83,8.23,8.23,0,0,1-3.37.64h-2v3.43h-4.7V105.14h6.71a8.24,8.24,0,0,1,3.37.64,5.17,5.17,0,0,1,2.21,7.41Zm10.74,2.45a7.71,7.71,0,0,1-2.44,2.85,5.56,5.56,0,0,1-3.18,1,7.17,7.17,0,0,1-2.71-.56l1.1-3.39a5.71,5.71,0,0,0,1.43.24,2,2,0,0,0,.89-.18,2.14,2.14,0,0,0,.71-.6l-5.34-9.84h5l2.77,5.88,2.87-5.88h4.54Zm18.74,2.23a6.85,6.85,0,0,1-4.32,1.22h-7.35V105.14h12.09v3.55h-7.47v1.61h3.33a6.16,6.16,0,0,1,3.91,1.09,3.77,3.77,0,0,1,1.36,3.14A4,4,0,0,1,159.94,117.87Z"/><path class="cls-1" d="M124.59,108.77h-1.71V112h1.71a2.09,2.09,0,0,0,1.43-.43,1.76,1.76,0,0,0,0-2.41A2.09,2.09,0,0,0,124.59,108.77Z"/></g></g></svg>