<svg xmlns="http://www.w3.org/2000/svg" viewBox="0 0 16.23 21.69"><defs><style>.cls-1{fill:#e6e6e6;}</style></defs><title>user-icon</title><g id="Слой_2" data-name="Слой 2"><g id="Слой_1-2" data-name="Слой 1"><path class="cls-1" d="M14.13,8.08a1.58,1.58,0,0,1,1.58,1.58l.52,8.68a1.61,1.61,0,0,1-1.61,1.61h0A1.61,1.61,0,0,1,13,18.33l-.25-5a.13.13,0,0,0-.14-.14h0a.13.13,0,0,0-.14.14v7.61a.78.78,0,0,1-.76.76H4.53a.78.78,0,0,1-.76-.76V13.31a.13.13,0,0,0-.14-.14h0a.13.13,0,0,0-.14.14l-.25,5a1.61,1.61,0,0,1-1.61,1.61h0A1.61,1.61,0,0,1,0,18.33L.52,9.66c0-.87.44-1.58,1.31-1.58Zm-6-.38A3.85,3.85,0,1,0,4.26,3.85,3.84,3.84,0,0,0,8.1,7.69Z"/></g></g></svg>