<svg xmlns="http://www.w3.org/2000/svg" viewBox="0 0 31.42 18.05"><defs><style>.cls-1{fill:#e6e6e6;}</style></defs><title>vk-icon</title><g id="Слой_2" data-name="Слой 2"><g id="Слой_1-2" data-name="Слой 1"><path class="cls-1" d="M6.89,1.86a24.05,24.05,0,0,0,3.45,6,3.22,3.22,0,0,0,.7.64.53.53,0,0,0,.89-.26,7.57,7.57,0,0,0,.32-1.84c0-1.24,0-2.05-.07-3.29a1.61,1.61,0,0,0-1.49-1.7c-.36-.07-.39-.36-.16-.66A2.3,2.3,0,0,1,12.4,0C13.58,0,14.77,0,16,0a7.06,7.06,0,0,1,1.44.15,1.32,1.32,0,0,1,1.05,1.17,5,5,0,0,1,.07.95c0,1.35-.1,2.71-.11,4.06A7.07,7.07,0,0,0,18.55,8c.16.72.65.9,1.15.38a17.65,17.65,0,0,0,1.73-2.16,21.58,21.58,0,0,0,2.29-4.44c.32-.8.56-1,1.43-1H30a2.93,2.93,0,0,1,.86.12.74.74,0,0,1,.51,1A8.08,8.08,0,0,1,30,4.67c-1,1.4-2,2.77-3.05,4.16a5.23,5.23,0,0,0-.35.56,1.15,1.15,0,0,0,.2,1.65c.88.91,1.83,1.76,2.68,2.7a15.91,15.91,0,0,1,1.69,2.2A1.24,1.24,0,0,1,30.2,18c-.73.1-4.31,0-4.49,0a3.5,3.5,0,0,1-2.48-1c-.75-.73-1.44-1.52-2.17-2.28a6.05,6.05,0,0,0-.7-.64c-.59-.45-1.17-.35-1.45.34a13.39,13.39,0,0,0-.45,2.3,1.22,1.22,0,0,1-1.28,1.19,12,12,0,0,1-6.51-1.23,13.77,13.77,0,0,1-4.32-3.78A45.63,45.63,0,0,1,1.55,5.06C1.48,4.92.09,2,0,1.82A.83.83,0,0,1,.44.75c.25-.1,4.84,0,4.91,0A1.6,1.6,0,0,1,6.89,1.86Z"/></g></g></svg>